<svg width="29" height="28" viewBox="0 0 29 28" fill="none" xmlns="http://www.w3.org/2000/svg">
<path d="M11.9998 3.00027C18.3711 3.03892 20.9518 7.13468 20.9996 12.2318C21.0265 15.0814 19.5375 17.5407 17.2554 19.0391C16.1428 20.0092 17.4675 23.1882 18.5279 24C18.5279 24 14.7792 23.6852 13.7457 20.4289C13.1752 20.532 12.5883 20.5853 11.9864 20.5853C7.01602 20.5853 3 17.3308 3 12.2318C3 7.13284 5.56732 2.96161 11.9998 3.00027Z" fill="white" stroke="#CFCCCC" stroke-opacity="0.22" stroke-width="6" stroke-miterlimit="10" stroke-linejoin="round"/>
<path d="M16.9998 4.00027C23.3711 4.03892 25.9518 8.13468 25.9996 13.2318C26.0265 16.0814 24.5375 18.5407 22.2554 20.0391C21.1428 21.0092 22.4675 24.1882 23.5279 25C23.5279 25 19.7792 24.6852 18.7457 21.4289C18.1752 21.532 17.5883 21.5853 16.9864 21.5853C12.016 21.5853 8 18.3308 8 13.2318C8 8.13284 10.5673 3.96161 16.9998 4.00027Z" fill="#1703FF" stroke="#CFCCCC" stroke-opacity="0.38" stroke-width="6" stroke-miterlimit="10" stroke-linejoin="round"/>
</svg>
